<svg xmlns="http://www.w3.org/2000/svg" version="1.1" xmlns:xlink="http://www.w3.org/1999/xlink" xmlns:svgjs="http://svgjs.dev/svgjs" width="2000" height="2250" viewBox="0 0 2000 2250"><g transform="matrix(1,0,0,1,0.0026312500004905814,0)"><svg viewBox="0 0 320 360" data-background-color="#e5f8f9" preserveAspectRatio="xMidYMid meet" height="2250" width="2000" xmlns="http://www.w3.org/2000/svg" xmlns:xlink="http://www.w3.org/1999/xlink"><g id="tight-bounds" transform="matrix(1,0,0,1,-0.00042100000007394556,0)"><svg viewBox="0 0 320 360" height="360" width="320"><g><svg></svg></g><g><svg viewBox="0 0 320 360" height="360" width="320"><g><path transform="translate(-9.31575,10.66434) scale(0.39811,0.39811)" d="M827.2 486c-0.2-21.2-13.6-38-13.8-59.2-0.1-21.2 13.1-46.8 12.9-68-6.7-20.1-24.7-31.9-31.4-52-6.7-20.1-2.1-48.6-8.7-68.7-12.6-17.1-33.4-22.7-45.9-39.7-12.6-17.1-17-45.6-29.5-62.6-17.2-12.3-38.7-11.3-56-23.6-17.2-12.3-30.2-38.1-47.5-50.4-20.2-6.4-40.3 1.3-60.5-5.2-20.2-6.4-40.5-26.9-60.7-33.3-21.2 0.2-38 13.6-59.2 13.8-21.2 0.1-46.8-13.1-68-12.9-20.1 6.7-31.9 24.7-52 31.4-20.1 6.7-48.6 2.1-68.7 8.8-17.1 12.6-22.7 33.4-39.7 45.9-17.1 12.6-45.6 17-62.6 29.6-12.3 17.2-11.3 38.7-23.6 56-12.3 17.2-38.1 30.2-50.4 47.5-6.4 20.2 1.2 40.3-5.2 60.5-6.4 20.2-26.9 40.5-33.3 60.7 0.1 21.2 13.6 38 13.8 59.2 0.1 21.2-13.1 46.8-12.9 68 6.7 20.1 24.7 31.9 31.4 52 6.7 20.1 2.1 48.6 8.8 68.7 12.6 17.1 33.4 22.7 45.9 39.8 12.6 17.1 17 45.6 29.5 62.6 17.2 12.3 38.7 11.3 56 23.6 17.2 12.3 30.2 38.1 47.5 50.4 20.2 6.4 40.3-1.2 60.5 5.2 20.2 6.4 40.5 26.9 60.7 33.3 21.2-0.2 38-13.6 59.2-13.8 21.2-0.1 46.8 13.1 68 12.9 20.1-6.7 31.9-24.7 52-31.4 20.1-6.7 48.6-2.1 68.7-8.8 17.1-12.6 22.7-33.4 39.8-45.9 17.1-12.6 45.6-17 62.6-29.5 12.3-17.2 11.3-38.7 23.6-56 12.3-17.2 38.1-30.2 50.4-47.5 6.4-20.2-1.2-40.3 5.2-60.5 6.2-20.4 26.7-40.7 33.1-60.9zM792 544.4c-9.1 17.9-31.4 33.8-40.6 51.7-9.1 17.9-5.1 37.9-14.2 55.8-14.2 14.2-40.3 22.4-54.6 36.6-14.2 14.2-16.5 34.5-30.8 48.7-17.9 9.1-45.3 8.8-63.2 18-17.9 9.1-26.4 27.7-44.3 36.8-19.9 3.1-45.8-5.6-65.7-2.5-19.9 3.1-33.7 18.2-53.5 21.3-19.9-3.1-41.8-19.5-61.7-22.6-19.9-3.2-37.6 6.9-57.5 3.7-17.9-9.1-33.8-31.5-51.7-40.6-17.9-9.1-37.9-5.1-55.9-14.2-14.2-14.2-22.4-40.3-36.6-54.6-14.2-14.2-34.5-16.6-48.7-30.8-9.1-17.9-8.8-45.3-18-63.2-9.1-17.9-27.7-26.4-36.8-44.3-3.1-19.9 5.6-45.8 2.5-65.7-3.2-19.9-18.2-33.7-21.3-53.5 3.2-19.9 19.5-41.8 22.6-61.7 3.1-19.9-6.9-37.6-3.7-57.5 9.1-17.9 31.5-33.8 40.6-51.7 9.1-17.9 5.1-37.9 14.2-55.9 14.2-14.2 40.3-22.4 54.6-36.6 14.2-14.2 16.6-34.5 30.8-48.7 17.9-9.1 45.3-8.8 63.2-18 17.9-9.1 26.4-27.7 44.3-36.8 19.9-3.1 45.8 5.6 65.7 2.5 19.9-3.1 33.7-18.2 53.5-21.3 19.9 3.1 41.8 19.5 61.7 22.6 19.9 3.2 37.6-6.9 57.5-3.7 17.9 9.1 33.8 31.5 51.7 40.6 17.9 9.1 37.9 5.1 55.9 14.2 14.2 14.2 22.4 40.3 36.6 54.6 14.2 14.2 34.5 16.6 48.7 30.8 9.1 17.9 8.8 45.3 18 63.2 9.1 17.9 27.7 26.4 36.8 44.3 3.2 19.9-5.6 45.8-2.5 65.7 3.1 19.9 18.2 33.7 21.3 53.5-3.1 19.9-19.5 41.8-22.6 61.7-3.1 19.9 6.9 37.7 3.7 57.6z" fill="#000000" fill-rule="nonzero" stroke="none" stroke-width="1" stroke-linecap="butt" stroke-linejoin="miter" stroke-miterlimit="10" stroke-dasharray="" stroke-dashoffset="0" font-family="none" font-weight="none" font-size="none" text-anchor="none" style="mix-blend-mode: normal" data-fill-palette-color="tertiary"></path></g><g transform="matrix(1,0,0,1,48,157.6174039880597)"><svg viewBox="0 0 224 44.7651920238806" height="44.7651920238806" width="224"><g><svg viewBox="0 0 224 44.7651920238806" height="44.7651920238806" width="224"><g><svg viewBox="0 0 224 44.7651920238806" height="44.7651920238806" width="224"><g transform="matrix(1,0,0,1,0,27.666684561194035)"><svg viewBox="0 0 224 17.09850746268657" height="17.09850746268657" width="224"><g id="textblocktransform"><svg viewBox="0 0 224 17.09850746268657" height="17.09850746268657" width="224" id="textblock"><g><svg viewBox="0 0 224 17.09850746268657" height="17.09850746268657" width="224"><g transform="matrix(1,0,0,1,0,0)"><svg width="224" viewBox="0 -35.8 468.97 35.8" height="17.09850746268657" data-palette-color="#0051f3"><path d="M40.35-2.15L52.4-2.15 52.4 0 33.75 0 26.4-23.95 26-23.95 18.65 0 0 0 0-2.15 12.05-2.15 0.6-34.95 6.95-34.95 15.75-9.8 23.55-34.95 28.85-34.95 36.65-9.8 45.45-34.95 51.8-34.95 40.35-2.15ZM52.4-2.15L57.25-2.15 57.25-34.95 63.15-34.95 63.15-2.15 68-2.15 68 0 52.4 0 52.4-2.15ZM68-2.15L72.84-2.15 72.84-34.95 78.75-34.95 99.05-8.85 99.05-34.95 104.95-34.95 104.95-2.15 109.8-2.15 109.8 0 98.55 0 78.75-25.5 78.75 0 68 0 68-2.15ZM137.34-2.15L148.89-2.15 148.89 0 109.79 0 109.79-2.15 114.64-2.15 114.64-34.95 126.64-34.95Q136.04-34.95 141.09-30.38 146.14-25.8 146.14-17.5L146.14-17.5Q146.14-6.35 137.34-2.15L137.34-2.15ZM140.19-17.5L140.19-17.5Q140.19-29.5 126.44-29.5L126.44-29.5 120.54-29.5 120.54-5.55 127.09-5.55Q133.44-5.55 136.82-8.58 140.19-11.6 140.19-17.5ZM179.44-2.15L190.89-2.15 190.89 0 148.89 0 148.89-2.15 160.34-2.15Q156.24-4.5 153.87-8.6 151.49-12.7 151.49-17.75L151.49-17.75Q151.49-25.45 156.79-30.63 162.09-35.8 169.89-35.8 177.69-35.8 182.99-30.63 188.29-25.45 188.29-17.75L188.29-17.75Q188.29-12.75 185.92-8.6 183.54-4.45 179.44-2.15L179.44-2.15ZM178.67-26.7Q175.09-30.4 169.89-30.4 164.69-30.4 161.12-26.7 157.54-23 157.54-17.73 157.54-12.45 161.12-8.75 164.69-5.05 169.89-5.05 175.09-5.05 178.67-8.75 182.24-12.45 182.24-17.73 182.24-23 178.67-26.7ZM231.24-2.15L243.29-2.15 243.29 0 224.64 0 217.29-23.95 216.89-23.95 209.54 0 190.89 0 190.89-2.15 202.94-2.15 191.49-34.95 197.84-34.95 206.64-9.8 214.44-34.95 219.74-34.95 227.54-9.8 236.34-34.95 242.69-34.95 231.24-2.15ZM277.34-2.15L280.59-2.15 280.59 0 243.29 0 243.29-2.15 250.99-2.15Q245.74-4.95 245.74-10.8L245.74-10.8Q245.74-16.15 253.49-20.35L253.49-20.35Q251.69-22.45 250.96-23.9 250.24-25.35 250.24-27.5L250.24-27.5Q250.24-31.5 253.19-33.65 256.14-35.8 260.14-35.8 264.14-35.8 266.94-33.75 269.74-31.7 269.74-28L269.74-28Q269.74-25.3 267.66-23.28 265.59-21.25 261.34-19.15L261.34-19.15Q265.99-13.5 267.84-11.55L267.84-11.55Q269.79-14.3 270.64-17.5L270.64-17.5 274.74-14.6Q273.24-10.7 271.39-7.95L271.39-7.95Q273.74-5.6 277.34-2.15L277.34-2.15ZM251.29-10.55Q251.29-8.3 253.19-6.88 255.09-5.45 258.11-5.45 261.14-5.45 264.44-7.95L264.44-7.95Q258.39-14.4 256.54-16.8L256.54-16.8Q251.29-13.85 251.29-10.55L251.29-10.55ZM260.11-31.35Q258.44-31.35 257.11-30.3 255.79-29.25 255.79-27.53 255.79-25.8 258.39-22.7L258.39-22.7Q261.79-24.2 263.11-25.2 264.44-26.2 264.44-27.4L264.44-27.4Q264.44-29.4 263.11-30.38 261.79-31.35 260.11-31.35ZM270.09-2.15L268.04-4.2Q266.34-2.85 264.84-2.15L264.84-2.15 270.09-2.15ZM305.53-2.15L317.08-2.15 317.08 0 277.98 0 277.98-2.15 282.83-2.15 282.83-34.95 294.83-34.95Q304.23-34.95 309.28-30.38 314.33-25.8 314.33-17.5L314.33-17.5Q314.33-6.35 305.53-2.15L305.53-2.15ZM308.38-17.5L308.38-17.5Q308.38-29.5 294.63-29.5L294.63-29.5 288.73-29.5 288.73-5.55 295.28-5.55Q301.63-5.55 305.01-8.58 308.38-11.6 308.38-17.5ZM347.63-2.15L359.08-2.15 359.08 0 317.08 0 317.08-2.15 328.53-2.15Q324.43-4.5 322.06-8.6 319.68-12.7 319.68-17.75L319.68-17.75Q319.68-25.45 324.98-30.63 330.28-35.8 338.08-35.8 345.88-35.8 351.18-30.63 356.48-25.45 356.48-17.75L356.48-17.75Q356.48-12.75 354.11-8.6 351.73-4.45 347.63-2.15L347.63-2.15ZM346.86-26.7Q343.28-30.4 338.08-30.4 332.88-30.4 329.31-26.7 325.73-23 325.73-17.73 325.73-12.45 329.31-8.75 332.88-5.05 338.08-5.05 343.28-5.05 346.86-8.75 350.43-12.45 350.43-17.73 350.43-23 346.86-26.7ZM389.63-2.15L401.08-2.15 401.08 0 359.08 0 359.08-2.15 370.53-2.15Q366.43-4.5 364.05-8.6 361.68-12.7 361.68-17.75L361.68-17.75Q361.68-25.45 366.98-30.63 372.28-35.8 380.08-35.8 387.88-35.8 393.18-30.63 398.48-25.45 398.48-17.75L398.48-17.75Q398.48-12.75 396.1-8.6 393.73-4.45 389.63-2.15L389.63-2.15ZM388.85-26.7Q385.28-30.4 380.08-30.4 374.88-30.4 371.3-26.7 367.73-23 367.73-17.73 367.73-12.45 371.3-8.75 374.88-5.05 380.08-5.05 385.28-5.05 388.85-8.75 392.43-12.45 392.43-17.73 392.43-23 388.85-26.7ZM433.88-2.15L438.73-2.15 438.73 0 427.93 0 419.58-11.75 411.83-11.75 411.83 0 401.08 0 401.08-2.15 405.93-2.15 405.93-34.95 418.93-34.95Q426.93-34.95 430.38-32.25 433.83-29.55 433.83-23.6L433.83-23.6Q433.83-14.95 426.28-12.7L426.28-12.7 433.88-2.15ZM419.18-17.1Q424.18-17.1 425.98-18.65 427.78-20.2 427.78-23.63 427.78-27.05 425.93-28.33 424.08-29.6 419.33-29.6L419.33-29.6 411.83-29.6 411.83-17.1 419.18-17.1ZM462.72-2.15L468.97-2.15 468.97 0 437.47 0 437.47-2.15 443.87-2.15Q441.47-3.4 439.47-5.25L439.47-5.25 443.17-9.7Q448.47-5.1 454.17-5.1L454.17-5.1Q457.02-5.1 458.7-6.33 460.37-7.55 460.37-9.58 460.37-11.6 458.8-12.73 457.22-13.85 453.37-14.78 449.52-15.7 447.52-16.48 445.52-17.25 443.97-18.5L443.97-18.5Q440.87-20.85 440.87-25.7 440.87-30.55 444.4-33.18 447.92-35.8 453.12-35.8L453.12-35.8Q456.47-35.8 459.77-34.7 463.07-33.6 465.47-31.6L465.47-31.6 462.32-27.15Q460.77-28.55 458.12-29.45 455.47-30.35 452.9-30.35 450.32-30.35 448.67-29.3 447.02-28.25 447.02-26.13 447.02-24 448.67-22.88 450.32-21.75 455.7-20.45 461.07-19.15 463.8-16.8 466.52-14.45 466.52-10.2L466.52-10.2Q466.52-5.05 462.72-2.15L462.72-2.15Z" opacity="1" transform="matrix(1,0,0,1,0,0)" fill="#000000" class="wordmark-text-0" data-fill-palette-color="primary" id="text-0"></path></svg></g></svg></g></svg></g></svg></g><g transform="matrix(1,0,0,1,96.24622504049012,0)"><svg viewBox="0 0 31.50754991901977 23.63013731343284" height="23.63013731343284" width="31.50754991901977"><g><svg xmlns="http://www.w3.org/2000/svg" xmlns:xlink="http://www.w3.org/1999/xlink" version="1.1" x="0" y="0" viewBox="20 26 60 44.998999999999995" enable-background="new 0 0 100 100" xml:space="preserve" height="23.63013731343284" width="31.50754991901977" class="icon-icon-0" data-fill-palette-color="accent" id="icon-0"><g fill="#0300ff" data-fill-palette-color="accent"><path d="M80 26L80 26c-8.286 0-15.002 6.716-15.002 14.999v30H80V26z" fill="#000000" data-fill-palette-color="accent"></path><path d="M20 26L20 26c8.286 0 14.999 6.716 14.999 14.999v30H20V26z" fill="#000000" data-fill-palette-color="accent"></path><path d="M49.999 26c-8.285 0-15 6.716-15 14.999v30h30v-30C64.998 32.716 58.282 26 49.999 26zM61.661 39.411H51.587V29.333C56.828 30.046 60.947 34.17 61.661 39.411zM48.412 42.586v11.823H38.175V42.586H48.412zM51.587 42.586H61.82v11.823H51.587V42.586zM48.412 29.333v10.078H38.334C39.05 34.167 43.17 30.046 48.412 29.333zM38.175 57.587h10.236v10.237H38.175V57.587zM51.587 67.824V57.587H61.82v10.237H51.587z" fill="#000000" data-fill-palette-color="accent"></path></g></svg></g></svg></g><g></g></svg></g></svg></g></svg></g></svg></g><defs></defs></svg><rect width="320" height="360" fill="none" stroke="none" visibility="hidden"></rect></g></svg></g></svg>